ISO-10303-21;
HEADER;
FILE_DESCRIPTION(('Open CASCADE Model'),'2;1');
FILE_NAME('Open CASCADE Shape Model','2026-10-03T12:40:44',('Author'),(
    'Open CASCADE'),'Open CASCADE STEP processor 8.0','build123d',
  'Unknown');
FILE_SCHEMA(('AUTOMOTIVE_DESIGN { 1 0 10303 214 1 1 1 1 }'));
ENDSEC;
DATA;
#1 = APPLICATION_PROTOCOL_DEFINITION('international standard',
  'automotive_design',2000,#2);
#2 = APPLICATION_CONTEXT(
  'core data for automotive mechanical design processes');
#3 = SHAPE_DEFINITION_REPRESENTATION(#4,#10);
#4 = PRODUCT_DEFINITION_SHAPE('','',#5);
#5 = PRODUCT_DEFINITION('design','',#6,#9);
#6 = PRODUCT_DEFINITION_FORMATION('','',#7);
#7 = PRODUCT('COMPOUND','COMPOUND','',(#8));
#8 = PRODUCT_CONTEXT('',#2,'mechanical');
#9 = PRODUCT_DEFINITION_CONTEXT('part definition',#2,'design');
#10 = ADVANCED_BREP_SHAPE_REPRESENTATION('',(#11,#15),#1078);
#11 = AXIS2_PLACEMENT_3D('',#12,#13,#14);
#12 = CARTESIAN_POINT('',(0.,0.,0.));
#13 = DIRECTION('',(0.,0.,1.));
#14 = DIRECTION('',(1.,0.,-0.));
#15 = MANIFOLD_SOLID_BREP('',#16);
#16 = CLOSED_SHELL('',(#17,#168,#244,#380,#501,#528,#738,#800,#827,#834,
    #1051));
#17 = ADVANCED_FACE('',(#18,#137),#32,.F.);
#18 = FACE_BOUND('',#19,.F.);
#19 = EDGE_LOOP('',(#20,#55,#83,#111));
#20 = ORIENTED_EDGE('',*,*,#21,.T.);
#21 = EDGE_CURVE('',#22,#24,#26,.T.);
#22 = VERTEX_POINT('',#23);
#23 = CARTESIAN_POINT('',(0.,-20.,-20.));
#24 = VERTEX_POINT('',#25);
#25 = CARTESIAN_POINT('',(16.,-20.,-20.));
#26 = SURFACE_CURVE('',#27,(#31,#43),.PCURVE_S1.);
#27 = LINE('',#28,#29);
#28 = CARTESIAN_POINT('',(0.,-20.,-20.));
#29 = VECTOR('',#30,1.);
#30 = DIRECTION('',(1.,0.,0.));
#31 = PCURVE('',#32,#37);
#32 = PLANE('',#33);
#33 = AXIS2_PLACEMENT_3D('',#34,#35,#36);
#34 = CARTESIAN_POINT('',(0.,-20.,-20.));
#35 = DIRECTION('',(0.,0.,1.));
#36 = DIRECTION('',(0.,1.,0.));
#37 = DEFINITIONAL_REPRESENTATION('',(#38),#42);
#38 = LINE('',#39,#40);
#39 = CARTESIAN_POINT('',(0.,0.));
#40 = VECTOR('',#41,1.);
#41 = DIRECTION('',(0.,-1.));
#42 = ( GEOMETRIC_REPRESENTATION_CONTEXT(2) 
PARAMETRIC_REPRESENTATION_CONTEXT() REPRESENTATION_CONTEXT('2D SPACE',''
  ) );
#43 = PCURVE('',#44,#49);
#44 = PLANE('',#45);
#45 = AXIS2_PLACEMENT_3D('',#46,#47,#48);
#46 = CARTESIAN_POINT('',(0.,-20.,20.));
#47 = DIRECTION('',(-0.,1.,0.));
#48 = DIRECTION('',(0.,0.,-1.));
#49 = DEFINITIONAL_REPRESENTATION('',(#50),#54);
#50 = LINE('',#51,#52);
#51 = CARTESIAN_POINT('',(40.,0.));
#52 = VECTOR('',#53,1.);
#53 = DIRECTION('',(0.,-1.));
#54 = ( GEOMETRIC_REPRESENTATION_CONTEXT(2) 
PARAMETRIC_REPRESENTATION_CONTEXT() REPRESENTATION_CONTEXT('2D SPACE',''
  ) );
#55 = ORIENTED_EDGE('',*,*,#56,.T.);
#56 = EDGE_CURVE('',#24,#57,#59,.T.);
#57 = VERTEX_POINT('',#58);
#58 = CARTESIAN_POINT('',(16.,35.,-20.));
#59 = SURFACE_CURVE('',#60,(#64,#71),.PCURVE_S1.);
#60 = LINE('',#61,#62);
#61 = CARTESIAN_POINT('',(16.,-20.,-20.));
#62 = VECTOR('',#63,1.);
#63 = DIRECTION('',(0.,1.,0.));
#64 = PCURVE('',#32,#65);
#65 = DEFINITIONAL_REPRESENTATION('',(#66),#70);
#66 = LINE('',#67,#68);
#67 = CARTESIAN_POINT('',(0.,-16.));
#68 = VECTOR('',#69,1.);
#69 = DIRECTION('',(1.,0.));
#70 = ( GEOMETRIC_REPRESENTATION_CONTEXT(2) 
PARAMETRIC_REPRESENTATION_CONTEXT() REPRESENTATION_CONTEXT('2D SPACE',''
  ) );
#71 = PCURVE('',#72,#77);
#72 = PLANE('',#73);
#73 = AXIS2_PLACEMENT_3D('',#74,#75,#76);
#74 = CARTESIAN_POINT('',(16.,34.480987085043,1.541192701249E-15));
#75 = DIRECTION('',(1.,0.,0.));
#76 = DIRECTION('',(0.,1.,0.));
#77 = DEFINITIONAL_REPRESENTATION('',(#78),#82);
#78 = LINE('',#79,#80);
#79 = CARTESIAN_POINT('',(-54.48098708504,-20.));
#80 = VECTOR('',#81,1.);
#81 = DIRECTION('',(1.,0.));
#82 = ( GEOMETRIC_REPRESENTATION_CONTEXT(2) 
PARAMETRIC_REPRESENTATION_CONTEXT() REPRESENTATION_CONTEXT('2D SPACE',''
  ) );
#83 = ORIENTED_EDGE('',*,*,#84,.F.);
#84 = EDGE_CURVE('',#85,#57,#87,.T.);
#85 = VERTEX_POINT('',#86);
#86 = CARTESIAN_POINT('',(0.,35.,-20.));
#87 = SURFACE_CURVE('',#88,(#92,#99),.PCURVE_S1.);
#88 = LINE('',#89,#90);
#89 = CARTESIAN_POINT('',(0.,35.,-20.));
#90 = VECTOR('',#91,1.);
#91 = DIRECTION('',(1.,0.,0.));
#92 = PCURVE('',#32,#93);
#93 = DEFINITIONAL_REPRESENTATION('',(#94),#98);
#94 = LINE('',#95,#96);
#95 = CARTESIAN_POINT('',(55.,0.));
#96 = VECTOR('',#97,1.);
#97 = DIRECTION('',(0.,-1.));
#98 = ( GEOMETRIC_REPRESENTATION_CONTEXT(2) 
PARAMETRIC_REPRESENTATION_CONTEXT() REPRESENTATION_CONTEXT('2D SPACE',''
  ) );
#99 = PCURVE('',#100,#105);
#100 = PLANE('',#101);
#101 = AXIS2_PLACEMENT_3D('',#102,#103,#104);
#102 = CARTESIAN_POINT('',(0.,35.,-20.));
#103 = DIRECTION('',(0.,-0.132163720091,0.991227900683));
#104 = DIRECTION('',(0.,0.991227900683,0.132163720091));
#105 = DEFINITIONAL_REPRESENTATION('',(#106),#110);
#106 = LINE('',#107,#108);
#107 = CARTESIAN_POINT('',(0.,0.));
#108 = VECTOR('',#109,1.);
#109 = DIRECTION('',(0.,-1.));
#110 = ( GEOMETRIC_REPRESENTATION_CONTEXT(2) 
PARAMETRIC_REPRESENTATION_CONTEXT() REPRESENTATION_CONTEXT('2D SPACE',''
  ) );
#111 = ORIENTED_EDGE('',*,*,#112,.F.);
#112 = EDGE_CURVE('',#22,#85,#113,.T.);
#113 = SURFACE_CURVE('',#114,(#118,#125),.PCURVE_S1.);
#114 = LINE('',#115,#116);
#115 = CARTESIAN_POINT('',(0.,-20.,-20.));
#116 = VECTOR('',#117,1.);
#117 = DIRECTION('',(0.,1.,0.));
#118 = PCURVE('',#32,#119);
#119 = DEFINITIONAL_REPRESENTATION('',(#120),#124);
#120 = LINE('',#121,#122);
#121 = CARTESIAN_POINT('',(0.,0.));
#122 = VECTOR('',#123,1.);
#123 = DIRECTION('',(1.,0.));
#124 = ( GEOMETRIC_REPRESENTATION_CONTEXT(2) 
PARAMETRIC_REPRESENTATION_CONTEXT() REPRESENTATION_CONTEXT('2D SPACE',''
  ) );
#125 = PCURVE('',#126,#131);
#126 = PLANE('',#127);
#127 = AXIS2_PLACEMENT_3D('',#128,#129,#130);
#128 = CARTESIAN_POINT('',(0.,34.480987085043,1.541192701249E-15));
#129 = DIRECTION('',(1.,0.,0.));
#130 = DIRECTION('',(0.,1.,0.));
#131 = DEFINITIONAL_REPRESENTATION('',(#132),#136);
#132 = LINE('',#133,#134);
#133 = CARTESIAN_POINT('',(-54.48098708504,-20.));
#134 = VECTOR('',#135,1.);
#135 = DIRECTION('',(1.,0.));
#136 = ( GEOMETRIC_REPRESENTATION_CONTEXT(2) 
PARAMETRIC_REPRESENTATION_CONTEXT() REPRESENTATION_CONTEXT('2D SPACE',''
  ) );
#137 = FACE_BOUND('',#138,.F.);
#138 = EDGE_LOOP('',(#139));
#139 = ORIENTED_EDGE('',*,*,#140,.F.);
#140 = EDGE_CURVE('',#141,#141,#143,.T.);
#141 = VERTEX_POINT('',#142);
#142 = CARTESIAN_POINT('',(10.65,-6.490628035481E-16,-20.));
#143 = SURFACE_CURVE('',#144,(#149,#156),.PCURVE_S1.);
#144 = CIRCLE('',#145,2.65);
#145 = AXIS2_PLACEMENT_3D('',#146,#147,#148);
#146 = CARTESIAN_POINT('',(8.,0.,-20.));
#147 = DIRECTION('',(0.,0.,1.));
#148 = DIRECTION('',(1.,0.,-0.));
#149 = PCURVE('',#32,#150);
#150 = DEFINITIONAL_REPRESENTATION('',(#151),#155);
#151 = CIRCLE('',#152,2.65);
#152 = AXIS2_PLACEMENT_2D('',#153,#154);
#153 = CARTESIAN_POINT('',(20.,-8.));
#154 = DIRECTION('',(0.,-1.));
#155 = ( GEOMETRIC_REPRESENTATION_CONTEXT(2) 
PARAMETRIC_REPRESENTATION_CONTEXT() REPRESENTATION_CONTEXT('2D SPACE',''
  ) );
#156 = PCURVE('',#157,#162);
#157 = CYLINDRICAL_SURFACE('',#158,2.65);
#158 = AXIS2_PLACEMENT_3D('',#159,#160,#161);
#159 = CARTESIAN_POINT('',(8.,0.,-30.));
#160 = DIRECTION('',(0.,0.,1.));
#161 = DIRECTION('',(1.,0.,-0.));
#162 = DEFINITIONAL_REPRESENTATION('',(#163),#167);
#163 = LINE('',#164,#165);
#164 = CARTESIAN_POINT('',(0.,10.));
#165 = VECTOR('',#166,1.);
#166 = DIRECTION('',(1.,0.));
#167 = ( GEOMETRIC_REPRESENTATION_CONTEXT(2) 
PARAMETRIC_REPRESENTATION_CONTEXT() REPRESENTATION_CONTEXT('2D SPACE',''
  ) );
#168 = ADVANCED_FACE('',(#169),#44,.F.);
#169 = FACE_BOUND('',#170,.F.);
#170 = EDGE_LOOP('',(#171,#201,#222,#223));
#171 = ORIENTED_EDGE('',*,*,#172,.T.);
#172 = EDGE_CURVE('',#173,#175,#177,.T.);
#173 = VERTEX_POINT('',#174);
#174 = CARTESIAN_POINT('',(0.,-20.,20.));
#175 = VERTEX_POINT('',#176);
#176 = CARTESIAN_POINT('',(16.,-20.,20.));
#177 = SURFACE_CURVE('',#178,(#182,#189),.PCURVE_S1.);
#178 = LINE('',#179,#180);
#179 = CARTESIAN_POINT('',(0.,-20.,20.));
#180 = VECTOR('',#181,1.);
#181 = DIRECTION('',(1.,0.,0.));
#182 = PCURVE('',#44,#183);
#183 = DEFINITIONAL_REPRESENTATION('',(#184),#188);
#184 = LINE('',#185,#186);
#185 = CARTESIAN_POINT('',(0.,0.));
#186 = VECTOR('',#187,1.);
#187 = DIRECTION('',(0.,-1.));
#188 = ( GEOMETRIC_REPRESENTATION_CONTEXT(2) 
PARAMETRIC_REPRESENTATION_CONTEXT() REPRESENTATION_CONTEXT('2D SPACE',''
  ) );
#189 = PCURVE('',#190,#195);
#190 = PLANE('',#191);
#191 = AXIS2_PLACEMENT_3D('',#192,#193,#194);
#192 = CARTESIAN_POINT('',(0.,35.,20.));
#193 = DIRECTION('',(0.,0.,-1.));
#194 = DIRECTION('',(0.,-1.,0.));
#195 = DEFINITIONAL_REPRESENTATION('',(#196),#200);
#196 = LINE('',#197,#198);
#197 = CARTESIAN_POINT('',(55.,0.));
#198 = VECTOR('',#199,1.);
#199 = DIRECTION('',(0.,-1.));
#200 = ( GEOMETRIC_REPRESENTATION_CONTEXT(2) 
PARAMETRIC_REPRESENTATION_CONTEXT() REPRESENTATION_CONTEXT('2D SPACE',''
  ) );
#201 = ORIENTED_EDGE('',*,*,#202,.T.);
#202 = EDGE_CURVE('',#175,#24,#203,.T.);
#203 = SURFACE_CURVE('',#204,(#208,#215),.PCURVE_S1.);
#204 = LINE('',#205,#206);
#205 = CARTESIAN_POINT('',(16.,-20.,20.));
#206 = VECTOR('',#207,1.);
#207 = DIRECTION('',(0.,0.,-1.));
#208 = PCURVE('',#44,#209);
#209 = DEFINITIONAL_REPRESENTATION('',(#210),#214);
#210 = LINE('',#211,#212);
#211 = CARTESIAN_POINT('',(0.,-16.));
#212 = VECTOR('',#213,1.);
#213 = DIRECTION('',(1.,0.));
#214 = ( GEOMETRIC_REPRESENTATION_CONTEXT(2) 
PARAMETRIC_REPRESENTATION_CONTEXT() REPRESENTATION_CONTEXT('2D SPACE',''
  ) );
#215 = PCURVE('',#72,#216);
#216 = DEFINITIONAL_REPRESENTATION('',(#217),#221);
#217 = LINE('',#218,#219);
#218 = CARTESIAN_POINT('',(-54.48098708504,20.));
#219 = VECTOR('',#220,1.);
#220 = DIRECTION('',(0.,-1.));
#221 = ( GEOMETRIC_REPRESENTATION_CONTEXT(2) 
PARAMETRIC_REPRESENTATION_CONTEXT() REPRESENTATION_CONTEXT('2D SPACE',''
  ) );
#222 = ORIENTED_EDGE('',*,*,#21,.F.);
#223 = ORIENTED_EDGE('',*,*,#224,.F.);
#224 = EDGE_CURVE('',#173,#22,#225,.T.);
#225 = SURFACE_CURVE('',#226,(#230,#237),.PCURVE_S1.);
#226 = LINE('',#227,#228);
#227 = CARTESIAN_POINT('',(0.,-20.,20.));
#228 = VECTOR('',#229,1.);
#229 = DIRECTION('',(0.,0.,-1.));
#230 = PCURVE('',#44,#231);
#231 = DEFINITIONAL_REPRESENTATION('',(#232),#236);
#232 = LINE('',#233,#234);
#233 = CARTESIAN_POINT('',(0.,0.));
#234 = VECTOR('',#235,1.);
#235 = DIRECTION('',(1.,0.));
#236 = ( GEOMETRIC_REPRESENTATION_CONTEXT(2) 
PARAMETRIC_REPRESENTATION_CONTEXT() REPRESENTATION_CONTEXT('2D SPACE',''
  ) );
#237 = PCURVE('',#126,#238);
#238 = DEFINITIONAL_REPRESENTATION('',(#239),#243);
#239 = LINE('',#240,#241);
#240 = CARTESIAN_POINT('',(-54.48098708504,20.));
#241 = VECTOR('',#242,1.);
#242 = DIRECTION('',(0.,-1.));
#243 = ( GEOMETRIC_REPRESENTATION_CONTEXT(2) 
PARAMETRIC_REPRESENTATION_CONTEXT() REPRESENTATION_CONTEXT('2D SPACE',''
  ) );
#244 = ADVANCED_FACE('',(#245,#349),#126,.F.);
#245 = FACE_BOUND('',#246,.F.);
#246 = EDGE_LOOP('',(#247,#248,#271,#299,#327,#348));
#247 = ORIENTED_EDGE('',*,*,#112,.T.);
#248 = ORIENTED_EDGE('',*,*,#249,.T.);
#249 = EDGE_CURVE('',#85,#250,#252,.T.);
#250 = VERTEX_POINT('',#251);
#251 = CARTESIAN_POINT('',(0.,95.,-12.));
#252 = SURFACE_CURVE('',#253,(#257,#264),.PCURVE_S1.);
#253 = LINE('',#254,#255);
#254 = CARTESIAN_POINT('',(0.,35.,-20.));
#255 = VECTOR('',#256,1.);
#256 = DIRECTION('',(0.,0.991227900683,0.132163720091));
#257 = PCURVE('',#126,#258);
#258 = DEFINITIONAL_REPRESENTATION('',(#259),#263);
#259 = LINE('',#260,#261);
#260 = CARTESIAN_POINT('',(0.519012914957,-20.));
#261 = VECTOR('',#262,1.);
#262 = DIRECTION('',(0.991227900683,0.132163720091));
#263 = ( GEOMETRIC_REPRESENTATION_CONTEXT(2) 
PARAMETRIC_REPRESENTATION_CONTEXT() REPRESENTATION_CONTEXT('2D SPACE',''
  ) );
#264 = PCURVE('',#100,#265);
#265 = DEFINITIONAL_REPRESENTATION('',(#266),#270);
#266 = LINE('',#267,#268);
#267 = CARTESIAN_POINT('',(0.,0.));
#268 = VECTOR('',#269,1.);
#269 = DIRECTION('',(1.,0.));
#270 = ( GEOMETRIC_REPRESENTATION_CONTEXT(2) 
PARAMETRIC_REPRESENTATION_CONTEXT() REPRESENTATION_CONTEXT('2D SPACE',''
  ) );
#271 = ORIENTED_EDGE('',*,*,#272,.T.);
#272 = EDGE_CURVE('',#250,#273,#275,.T.);
#273 = VERTEX_POINT('',#274);
#274 = CARTESIAN_POINT('',(0.,95.,12.));
#275 = SURFACE_CURVE('',#276,(#280,#287),.PCURVE_S1.);
#276 = LINE('',#277,#278);
#277 = CARTESIAN_POINT('',(0.,95.,-12.));
#278 = VECTOR('',#279,1.);
#279 = DIRECTION('',(0.,0.,1.));
#280 = PCURVE('',#126,#281);
#281 = DEFINITIONAL_REPRESENTATION('',(#282),#286);
#282 = LINE('',#283,#284);
#283 = CARTESIAN_POINT('',(60.519012914957,-12.));
#284 = VECTOR('',#285,1.);
#285 = DIRECTION('',(0.,1.));
#286 = ( GEOMETRIC_REPRESENTATION_CONTEXT(2) 
PARAMETRIC_REPRESENTATION_CONTEXT() REPRESENTATION_CONTEXT('2D SPACE',''
  ) );
#287 = PCURVE('',#288,#293);
#288 = PLANE('',#289);
#289 = AXIS2_PLACEMENT_3D('',#290,#291,#292);
#290 = CARTESIAN_POINT('',(0.,95.,-12.));
#291 = DIRECTION('',(0.,-1.,0.));
#292 = DIRECTION('',(0.,0.,1.));
#293 = DEFINITIONAL_REPRESENTATION('',(#294),#298);
#294 = LINE('',#295,#296);
#295 = CARTESIAN_POINT('',(0.,0.));
#296 = VECTOR('',#297,1.);
#297 = DIRECTION('',(1.,0.));
#298 = ( GEOMETRIC_REPRESENTATION_CONTEXT(2) 
PARAMETRIC_REPRESENTATION_CONTEXT() REPRESENTATION_CONTEXT('2D SPACE',''
  ) );
#299 = ORIENTED_EDGE('',*,*,#300,.T.);
#300 = EDGE_CURVE('',#273,#301,#303,.T.);
#301 = VERTEX_POINT('',#302);
#302 = CARTESIAN_POINT('',(0.,35.,20.));
#303 = SURFACE_CURVE('',#304,(#308,#315),.PCURVE_S1.);
#304 = LINE('',#305,#306);
#305 = CARTESIAN_POINT('',(0.,95.,12.));
#306 = VECTOR('',#307,1.);
#307 = DIRECTION('',(0.,-0.991227900683,0.132163720091));
#308 = PCURVE('',#126,#309);
#309 = DEFINITIONAL_REPRESENTATION('',(#310),#314);
#310 = LINE('',#311,#312);
#311 = CARTESIAN_POINT('',(60.519012914957,12.));
#312 = VECTOR('',#313,1.);
#313 = DIRECTION('',(-0.991227900683,0.132163720091));
#314 = ( GEOMETRIC_REPRESENTATION_CONTEXT(2) 
PARAMETRIC_REPRESENTATION_CONTEXT() REPRESENTATION_CONTEXT('2D SPACE',''
  ) );
#315 = PCURVE('',#316,#321);
#316 = PLANE('',#317);
#317 = AXIS2_PLACEMENT_3D('',#318,#319,#320);
#318 = CARTESIAN_POINT('',(0.,95.,12.));
#319 = DIRECTION('',(0.,-0.132163720091,-0.991227900683));
#320 = DIRECTION('',(0.,-0.991227900683,0.132163720091));
#321 = DEFINITIONAL_REPRESENTATION('',(#322),#326);
#322 = LINE('',#323,#324);
#323 = CARTESIAN_POINT('',(0.,0.));
#324 = VECTOR('',#325,1.);
#325 = DIRECTION('',(1.,0.));
#326 = ( GEOMETRIC_REPRESENTATION_CONTEXT(2) 
PARAMETRIC_REPRESENTATION_CONTEXT() REPRESENTATION_CONTEXT('2D SPACE',''
  ) );
#327 = ORIENTED_EDGE('',*,*,#328,.T.);
#328 = EDGE_CURVE('',#301,#173,#329,.T.);
#329 = SURFACE_CURVE('',#330,(#334,#341),.PCURVE_S1.);
#330 = LINE('',#331,#332);
#331 = CARTESIAN_POINT('',(0.,35.,20.));
#332 = VECTOR('',#333,1.);
#333 = DIRECTION('',(0.,-1.,0.));
#334 = PCURVE('',#126,#335);
#335 = DEFINITIONAL_REPRESENTATION('',(#336),#340);
#336 = LINE('',#337,#338);
#337 = CARTESIAN_POINT('',(0.519012914957,20.));
#338 = VECTOR('',#339,1.);
#339 = DIRECTION('',(-1.,0.));
#340 = ( GEOMETRIC_REPRESENTATION_CONTEXT(2) 
PARAMETRIC_REPRESENTATION_CONTEXT() REPRESENTATION_CONTEXT('2D SPACE',''
  ) );
#341 = PCURVE('',#190,#342);
#342 = DEFINITIONAL_REPRESENTATION('',(#343),#347);
#343 = LINE('',#344,#345);
#344 = CARTESIAN_POINT('',(0.,-0.));
#345 = VECTOR('',#346,1.);
#346 = DIRECTION('',(1.,0.));
#347 = ( GEOMETRIC_REPRESENTATION_CONTEXT(2) 
PARAMETRIC_REPRESENTATION_CONTEXT() REPRESENTATION_CONTEXT('2D SPACE',''
  ) );
#348 = ORIENTED_EDGE('',*,*,#224,.T.);
#349 = FACE_BOUND('',#350,.F.);
#350 = EDGE_LOOP('',(#351));
#351 = ORIENTED_EDGE('',*,*,#352,.F.);
#352 = EDGE_CURVE('',#353,#353,#355,.T.);
#353 = VERTEX_POINT('',#354);
#354 = CARTESIAN_POINT('',(1.110223024625E-16,-3.526982781544E-15,-14.4)
  );
#355 = SURFACE_CURVE('',#356,(#361,#368),.PCURVE_S1.);
#356 = CIRCLE('',#357,14.4);
#357 = AXIS2_PLACEMENT_3D('',#358,#359,#360);
#358 = CARTESIAN_POINT('',(0.,0.,-1.7763568394E-15));
#359 = DIRECTION('',(1.,0.,2.22044604925E-16));
#360 = DIRECTION('',(2.22044604925E-16,0.,-1.));
#361 = PCURVE('',#126,#362);
#362 = DEFINITIONAL_REPRESENTATION('',(#363),#367);
#363 = CIRCLE('',#364,14.4);
#364 = AXIS2_PLACEMENT_2D('',#365,#366);
#365 = CARTESIAN_POINT('',(-34.48098708504,-3.317549540649E-15));
#366 = DIRECTION('',(0.,-1.));
#367 = ( GEOMETRIC_REPRESENTATION_CONTEXT(2) 
PARAMETRIC_REPRESENTATION_CONTEXT() REPRESENTATION_CONTEXT('2D SPACE',''
  ) );
#368 = PCURVE('',#369,#374);
#369 = CYLINDRICAL_SURFACE('',#370,14.4);
#370 = AXIS2_PLACEMENT_3D('',#371,#372,#373);
#371 = CARTESIAN_POINT('',(-1.,0.,-1.998401444325E-15));
#372 = DIRECTION('',(1.,0.,2.22044604925E-16));
#373 = DIRECTION('',(2.22044604925E-16,0.,-1.));
#374 = DEFINITIONAL_REPRESENTATION('',(#375),#379);
#375 = LINE('',#376,#377);
#376 = CARTESIAN_POINT('',(0.,1.));
#377 = VECTOR('',#378,1.);
#378 = DIRECTION('',(1.,0.));
#379 = ( GEOMETRIC_REPRESENTATION_CONTEXT(2) 
PARAMETRIC_REPRESENTATION_CONTEXT() REPRESENTATION_CONTEXT('2D SPACE',''
  ) );
#380 = ADVANCED_FACE('',(#381,#475),#72,.T.);
#381 = FACE_BOUND('',#382,.T.);
#382 = EDGE_LOOP('',(#383,#384,#407,#430,#453,#474));
#383 = ORIENTED_EDGE('',*,*,#56,.T.);
#384 = ORIENTED_EDGE('',*,*,#385,.T.);
#385 = EDGE_CURVE('',#57,#386,#388,.T.);
#386 = VERTEX_POINT('',#387);
#387 = CARTESIAN_POINT('',(16.,95.,-12.));
#388 = SURFACE_CURVE('',#389,(#393,#400),.PCURVE_S1.);
#389 = LINE('',#390,#391);
#390 = CARTESIAN_POINT('',(16.,35.,-20.));
#391 = VECTOR('',#392,1.);
#392 = DIRECTION('',(0.,0.991227900683,0.132163720091));
#393 = PCURVE('',#72,#394);
#394 = DEFINITIONAL_REPRESENTATION('',(#395),#399);
#395 = LINE('',#396,#397);
#396 = CARTESIAN_POINT('',(0.519012914957,-20.));
#397 = VECTOR('',#398,1.);
#398 = DIRECTION('',(0.991227900683,0.132163720091));
#399 = ( GEOMETRIC_REPRESENTATION_CONTEXT(2) 
PARAMETRIC_REPRESENTATION_CONTEXT() REPRESENTATION_CONTEXT('2D SPACE',''
  ) );
#400 = PCURVE('',#100,#401);
#401 = DEFINITIONAL_REPRESENTATION('',(#402),#406);
#402 = LINE('',#403,#404);
#403 = CARTESIAN_POINT('',(0.,-16.));
#404 = VECTOR('',#405,1.);
#405 = DIRECTION('',(1.,0.));
#406 = ( GEOMETRIC_REPRESENTATION_CONTEXT(2) 
PARAMETRIC_REPRESENTATION_CONTEXT() REPRESENTATION_CONTEXT('2D SPACE',''
  ) );
#407 = ORIENTED_EDGE('',*,*,#408,.T.);
#408 = EDGE_CURVE('',#386,#409,#411,.T.);
#409 = VERTEX_POINT('',#410);
#410 = CARTESIAN_POINT('',(16.,95.,12.));
#411 = SURFACE_CURVE('',#412,(#416,#423),.PCURVE_S1.);
#412 = LINE('',#413,#414);
#413 = CARTESIAN_POINT('',(16.,95.,-12.));
#414 = VECTOR('',#415,1.);
#415 = DIRECTION('',(0.,0.,1.));
#416 = PCURVE('',#72,#417);
#417 = DEFINITIONAL_REPRESENTATION('',(#418),#422);
#418 = LINE('',#419,#420);
#419 = CARTESIAN_POINT('',(60.519012914957,-12.));
#420 = VECTOR('',#421,1.);
#421 = DIRECTION('',(0.,1.));
#422 = ( GEOMETRIC_REPRESENTATION_CONTEXT(2) 
PARAMETRIC_REPRESENTATION_CONTEXT() REPRESENTATION_CONTEXT('2D SPACE',''
  ) );
#423 = PCURVE('',#288,#424);
#424 = DEFINITIONAL_REPRESENTATION('',(#425),#429);
#425 = LINE('',#426,#427);
#426 = CARTESIAN_POINT('',(0.,-16.));
#427 = VECTOR('',#428,1.);
#428 = DIRECTION('',(1.,0.));
#429 = ( GEOMETRIC_REPRESENTATION_CONTEXT(2) 
PARAMETRIC_REPRESENTATION_CONTEXT() REPRESENTATION_CONTEXT('2D SPACE',''
  ) );
#430 = ORIENTED_EDGE('',*,*,#431,.T.);
#431 = EDGE_CURVE('',#409,#432,#434,.T.);
#432 = VERTEX_POINT('',#433);
#433 = CARTESIAN_POINT('',(16.,35.,20.));
#434 = SURFACE_CURVE('',#435,(#439,#446),.PCURVE_S1.);
#435 = LINE('',#436,#437);
#436 = CARTESIAN_POINT('',(16.,95.,12.));
#437 = VECTOR('',#438,1.);
#438 = DIRECTION('',(0.,-0.991227900683,0.132163720091));
#439 = PCURVE('',#72,#440);
#440 = DEFINITIONAL_REPRESENTATION('',(#441),#445);
#441 = LINE('',#442,#443);
#442 = CARTESIAN_POINT('',(60.519012914957,12.));
#443 = VECTOR('',#444,1.);
#444 = DIRECTION('',(-0.991227900683,0.132163720091));
#445 = ( GEOMETRIC_REPRESENTATION_CONTEXT(2) 
PARAMETRIC_REPRESENTATION_CONTEXT() REPRESENTATION_CONTEXT('2D SPACE',''
  ) );
#446 = PCURVE('',#316,#447);
#447 = DEFINITIONAL_REPRESENTATION('',(#448),#452);
#448 = LINE('',#449,#450);
#449 = CARTESIAN_POINT('',(0.,-16.));
#450 = VECTOR('',#451,1.);
#451 = DIRECTION('',(1.,0.));
#452 = ( GEOMETRIC_REPRESENTATION_CONTEXT(2) 
PARAMETRIC_REPRESENTATION_CONTEXT() REPRESENTATION_CONTEXT('2D SPACE',''
  ) );
#453 = ORIENTED_EDGE('',*,*,#454,.T.);
#454 = EDGE_CURVE('',#432,#175,#455,.T.);
#455 = SURFACE_CURVE('',#456,(#460,#467),.PCURVE_S1.);
#456 = LINE('',#457,#458);
#457 = CARTESIAN_POINT('',(16.,35.,20.));
#458 = VECTOR('',#459,1.);
#459 = DIRECTION('',(0.,-1.,0.));
#460 = PCURVE('',#72,#461);
#461 = DEFINITIONAL_REPRESENTATION('',(#462),#466);
#462 = LINE('',#463,#464);
#463 = CARTESIAN_POINT('',(0.519012914957,20.));
#464 = VECTOR('',#465,1.);
#465 = DIRECTION('',(-1.,0.));
#466 = ( GEOMETRIC_REPRESENTATION_CONTEXT(2) 
PARAMETRIC_REPRESENTATION_CONTEXT() REPRESENTATION_CONTEXT('2D SPACE',''
  ) );
#467 = PCURVE('',#190,#468);
#468 = DEFINITIONAL_REPRESENTATION('',(#469),#473);
#469 = LINE('',#470,#471);
#470 = CARTESIAN_POINT('',(0.,-16.));
#471 = VECTOR('',#472,1.);
#472 = DIRECTION('',(1.,0.));
#473 = ( GEOMETRIC_REPRESENTATION_CONTEXT(2) 
PARAMETRIC_REPRESENTATION_CONTEXT() REPRESENTATION_CONTEXT('2D SPACE',''
  ) );
#474 = ORIENTED_EDGE('',*,*,#202,.T.);
#475 = FACE_BOUND('',#476,.T.);
#476 = EDGE_LOOP('',(#477));
#477 = ORIENTED_EDGE('',*,*,#478,.F.);
#478 = EDGE_CURVE('',#479,#479,#481,.T.);
#479 = VERTEX_POINT('',#480);
#480 = CARTESIAN_POINT('',(16.,-3.526982781544E-15,-14.4));
#481 = SURFACE_CURVE('',#482,(#487,#494),.PCURVE_S1.);
#482 = CIRCLE('',#483,14.4);
#483 = AXIS2_PLACEMENT_3D('',#484,#485,#486);
#484 = CARTESIAN_POINT('',(16.,0.,1.7763568394E-15));
#485 = DIRECTION('',(1.,0.,2.22044604925E-16));
#486 = DIRECTION('',(2.22044604925E-16,0.,-1.));
#487 = PCURVE('',#72,#488);
#488 = DEFINITIONAL_REPRESENTATION('',(#489),#493);
#489 = CIRCLE('',#490,14.4);
#490 = AXIS2_PLACEMENT_2D('',#491,#492);
#491 = CARTESIAN_POINT('',(-34.48098708504,2.351641381513E-16));
#492 = DIRECTION('',(0.,-1.));
#493 = ( GEOMETRIC_REPRESENTATION_CONTEXT(2) 
PARAMETRIC_REPRESENTATION_CONTEXT() REPRESENTATION_CONTEXT('2D SPACE',''
  ) );
#494 = PCURVE('',#369,#495);
#495 = DEFINITIONAL_REPRESENTATION('',(#496),#500);
#496 = LINE('',#497,#498);
#497 = CARTESIAN_POINT('',(0.,17.));
#498 = VECTOR('',#499,1.);
#499 = DIRECTION('',(1.,0.));
#500 = ( GEOMETRIC_REPRESENTATION_CONTEXT(2) 
PARAMETRIC_REPRESENTATION_CONTEXT() REPRESENTATION_CONTEXT('2D SPACE',''
  ) );
#501 = ADVANCED_FACE('',(#502),#100,.F.);
#502 = FACE_BOUND('',#503,.F.);
#503 = EDGE_LOOP('',(#504,#505,#506,#527));
#504 = ORIENTED_EDGE('',*,*,#84,.T.);
#505 = ORIENTED_EDGE('',*,*,#385,.T.);
#506 = ORIENTED_EDGE('',*,*,#507,.F.);
#507 = EDGE_CURVE('',#250,#386,#508,.T.);
#508 = SURFACE_CURVE('',#509,(#513,#520),.PCURVE_S1.);
#509 = LINE('',#510,#511);
#510 = CARTESIAN_POINT('',(0.,95.,-12.));
#511 = VECTOR('',#512,1.);
#512 = DIRECTION('',(1.,0.,0.));
#513 = PCURVE('',#100,#514);
#514 = DEFINITIONAL_REPRESENTATION('',(#515),#519);
#515 = LINE('',#516,#517);
#516 = CARTESIAN_POINT('',(60.530983801686,0.));
#517 = VECTOR('',#518,1.);
#518 = DIRECTION('',(0.,-1.));
#519 = ( GEOMETRIC_REPRESENTATION_CONTEXT(2) 
PARAMETRIC_REPRESENTATION_CONTEXT() REPRESENTATION_CONTEXT('2D SPACE',''
  ) );
#520 = PCURVE('',#288,#521);
#521 = DEFINITIONAL_REPRESENTATION('',(#522),#526);
#522 = LINE('',#523,#524);
#523 = CARTESIAN_POINT('',(0.,0.));
#524 = VECTOR('',#525,1.);
#525 = DIRECTION('',(0.,-1.));
#526 = ( GEOMETRIC_REPRESENTATION_CONTEXT(2) 
PARAMETRIC_REPRESENTATION_CONTEXT() REPRESENTATION_CONTEXT('2D SPACE',''
  ) );
#527 = ORIENTED_EDGE('',*,*,#249,.F.);
#528 = ADVANCED_FACE('',(#529),#157,.F.);
#529 = FACE_BOUND('',#530,.F.);
#530 = EDGE_LOOP('',(#531,#625,#646,#647,#648));
#531 = ORIENTED_EDGE('',*,*,#532,.F.);
#532 = EDGE_CURVE('',#533,#535,#537,.T.);
#533 = VERTEX_POINT('',#534);
#534 = CARTESIAN_POINT('',(10.65,-2.088022792546E-15,-14.4));
#535 = VERTEX_POINT('',#536);
#536 = CARTESIAN_POINT('',(5.35,-3.526982781544E-15,-14.4));
#537 = SURFACE_CURVE('',#538,(#565,#595),.PCURVE_S1.);
#538 = B_SPLINE_CURVE_WITH_KNOTS('',7,(#539,#540,#541,#542,#543,#544,
    #545,#546,#547,#548,#549,#550,#551,#552,#553,#554,#555,#556,#557,
    #558,#559,#560,#561,#562,#563,#564),.UNSPECIFIED.,.F.,.F.,(8,6,6,6,8
    ),(0.,0.238291310197,0.499996112757,0.7617159347,1.),.UNSPECIFIED.);
#539 = CARTESIAN_POINT('',(10.65,-3.24531401774E-16,-14.4));
#540 = CARTESIAN_POINT('',(10.65,0.346165377741,-14.4));
#541 = CARTESIAN_POINT('',(10.597245138754,0.682301406278,
    -14.39029124965));
#542 = CARTESIAN_POINT('',(10.497232871603,0.999237329795,
    -14.37188831552));
#543 = CARTESIAN_POINT('',(10.357013782588,1.289460964521,
    -14.34725463263));
#544 = CARTESIAN_POINT('',(10.185195112828,1.547285627064,
    -14.31967204341));
#545 = CARTESIAN_POINT('',(9.991909315298,1.76936322702,-14.29211530148)
  );
#546 = CARTESIAN_POINT('',(9.565534595008,2.159418401607,-14.23865781808
    ));
#547 = CARTESIAN_POINT('',(9.323720337129,2.32604759667,-14.21234848372)
  );
#548 = CARTESIAN_POINT('',(9.069542439846,2.456910752055,-14.189738317)
  );
#549 = CARTESIAN_POINT('',(8.807262848798,2.553744074781,-14.17208473884
    ));
#550 = CARTESIAN_POINT('',(8.539977255719,2.617871856037,-14.16007818928
    ));
#551 = CARTESIAN_POINT('',(8.270145272707,2.65,-14.15406302091));
#552 = CARTESIAN_POINT('',(7.729839223507,2.65,-14.15406302091));
#553 = CARTESIAN_POINT('',(7.459999639145,2.617868282452,-14.16007885002
    ));
#554 = CARTESIAN_POINT('',(7.192718548726,2.553736198588,-14.17208623594
    ));
#555 = CARTESIAN_POINT('',(6.930453968873,2.456904833866,-14.18973928276
    ));
#556 = CARTESIAN_POINT('',(6.676291421143,2.326051532463,-14.21234751604
    ));
#557 = CARTESIAN_POINT('',(6.43447919646,2.159431018287,-14.23865608895)
  );
#558 = CARTESIAN_POINT('',(6.00809596731,1.769368059644,-14.29211463916)
  );
#559 = CARTESIAN_POINT('',(5.814807562637,1.547290444752,-14.31967153528
    ));
#560 = CARTESIAN_POINT('',(5.642983916928,1.289460733814,-14.34725488367
    ));
#561 = CARTESIAN_POINT('',(5.502761949497,0.999229438825,-14.37188926814
    ));
#562 = CARTESIAN_POINT('',(5.402750984076,0.682287289056,-14.39029196333
    ));
#563 = CARTESIAN_POINT('',(5.35,0.346152686624,-14.4));
#564 = CARTESIAN_POINT('',(5.35,4.867971026611E-16,-14.4));
#565 = PCURVE('',#157,#566);
#566 = DEFINITIONAL_REPRESENTATION('',(#567),#594);
#567 = B_SPLINE_CURVE_WITH_KNOTS('',7,(#568,#569,#570,#571,#572,#573,
    #574,#575,#576,#577,#578,#579,#580,#581,#582,#583,#584,#585,#586,
    #587,#588,#589,#590,#591,#592,#593),.UNSPECIFIED.,.F.,.F.,(8,6,6,6,8
    ),(0.,0.238291310197,0.499996112757,0.7617159347,1.),.UNSPECIFIED.);
#568 = CARTESIAN_POINT('',(0.,15.6));
#569 = CARTESIAN_POINT('',(0.130628444431,15.6));
#570 = CARTESIAN_POINT('',(0.257472140144,15.609708750344));
#571 = CARTESIAN_POINT('',(0.380711596857,15.628111684475));
#572 = CARTESIAN_POINT('',(0.50020319185,15.65274536737));
#573 = CARTESIAN_POINT('',(0.615545870824,15.680327956581));
#574 = CARTESIAN_POINT('',(0.725927538718,15.707884698519));
#575 = CARTESIAN_POINT('',(0.943993225689,15.761342181913));
#576 = CARTESIAN_POINT('',(1.053763384223,15.78765151628));
#577 = CARTESIAN_POINT('',(1.160293332006,15.810261682995));
#578 = CARTESIAN_POINT('',(1.264437726206,15.827915261151));
#579 = CARTESIAN_POINT('',(1.36703152294,15.839921810714));
#580 = CARTESIAN_POINT('',(1.468854714453,15.845936979086));
#581 = CARTESIAN_POINT('',(1.672743789622,15.845936979086));
#582 = CARTESIAN_POINT('',(1.774569812182,15.839921149979));
#583 = CARTESIAN_POINT('',(1.877162311664,15.827913764057));
#584 = CARTESIAN_POINT('',(1.981301367808,15.810260717238));
#585 = CARTESIAN_POINT('',(2.087824996339,15.787652483957));
#586 = CARTESIAN_POINT('',(2.197592374373,15.761343911043));
#587 = CARTESIAN_POINT('',(2.415662413127,15.707885360835));
#588 = CARTESIAN_POINT('',(2.52604480981,15.680328464719));
#589 = CARTESIAN_POINT('',(2.641390020172,15.652745116326));
#590 = CARTESIAN_POINT('',(2.760884430275,15.628110731857));
#591 = CARTESIAN_POINT('',(2.884125841953,15.609708036666));
#592 = CARTESIAN_POINT('',(3.01096899826,15.6));
#593 = CARTESIAN_POINT('',(3.14159265359,15.6));
#594 = ( GEOMETRIC_REPRESENTATION_CONTEXT(2) 
PARAMETRIC_REPRESENTATION_CONTEXT() REPRESENTATION_CONTEXT('2D SPACE',''
  ) );
#595 = PCURVE('',#369,#596);
#596 = DEFINITIONAL_REPRESENTATION('',(#597),#624);
#597 = B_SPLINE_CURVE_WITH_KNOTS('',7,(#598,#599,#600,#601,#602,#603,
    #604,#605,#606,#607,#608,#609,#610,#611,#612,#613,#614,#615,#616,
    #617,#618,#619,#620,#621,#622,#623),.UNSPECIFIED.,.F.,.F.,(8,6,6,6,8
    ),(0.,0.238291310197,0.499996112757,0.7617159347,1.),.UNSPECIFIED.);
#598 = CARTESIAN_POINT('',(0.,11.65));
#599 = CARTESIAN_POINT('',(2.403926234315E-02,11.65));
#600 = CARTESIAN_POINT('',(4.738206272643E-02,11.597245138754));
#601 = CARTESIAN_POINT('',(6.94140773334E-02,11.497232871602));
#602 = CARTESIAN_POINT('',(8.963098968608E-02,11.357013782589));
#603 = CARTESIAN_POINT('',(0.107633448254,11.185195112828));
#604 = CARTESIAN_POINT('',(0.12317250015,10.991909315298));
#605 = CARTESIAN_POINT('',(0.150512870687,10.565534595008));
#606 = CARTESIAN_POINT('',(0.162225255986,10.32372033713));
#607 = CARTESIAN_POINT('',(0.171446790631,10.069542439846));
#608 = CARTESIAN_POINT('',(0.178282060466,9.807262848798));
#609 = CARTESIAN_POINT('',(0.182812768582,9.539977255719));
#610 = CARTESIAN_POINT('',(0.185082655287,9.270145272707));
#611 = CARTESIAN_POINT('',(0.185082655287,8.729839223507));
#612 = CARTESIAN_POINT('',(0.182812516433,8.459999639145));
#613 = CARTESIAN_POINT('',(0.178281503151,8.192718548726));
#614 = CARTESIAN_POINT('',(0.171446375154,7.930453968873));
#615 = CARTESIAN_POINT('',(0.162225535884,7.676291421143));
#616 = CARTESIAN_POINT('',(0.150513755035,7.43447919646));
#617 = CARTESIAN_POINT('',(0.123172838886,7.00809596731));
#618 = CARTESIAN_POINT('',(0.107633784577,6.814807562637));
#619 = CARTESIAN_POINT('',(8.963097145779E-02,6.642983916928));
#620 = CARTESIAN_POINT('',(6.941352661314E-02,6.502761949497));
#621 = CARTESIAN_POINT('',(4.73810824108E-02,6.402750984076));
#622 = CARTESIAN_POINT('',(2.403838101558E-02,6.35));
#623 = CARTESIAN_POINT('',(0.,6.35));
#624 = ( GEOMETRIC_REPRESENTATION_CONTEXT(2) 
PARAMETRIC_REPRESENTATION_CONTEXT() REPRESENTATION_CONTEXT('2D SPACE',''
  ) );
#625 = ORIENTED_EDGE('',*,*,#626,.F.);
#626 = EDGE_CURVE('',#141,#533,#627,.T.);
#627 = SEAM_CURVE('',#628,(#632,#639),.PCURVE_S1.);
#628 = LINE('',#629,#630);
#629 = CARTESIAN_POINT('',(10.65,-6.490628035481E-16,-30.));
#630 = VECTOR('',#631,1.);
#631 = DIRECTION('',(0.,0.,1.));
#632 = PCURVE('',#157,#633);
#633 = DEFINITIONAL_REPRESENTATION('',(#634),#638);
#634 = LINE('',#635,#636);
#635 = CARTESIAN_POINT('',(6.28318530718,-0.));
#636 = VECTOR('',#637,1.);
#637 = DIRECTION('',(0.,1.));
#638 = ( GEOMETRIC_REPRESENTATION_CONTEXT(2) 
PARAMETRIC_REPRESENTATION_CONTEXT() REPRESENTATION_CONTEXT('2D SPACE',''
  ) );
#639 = PCURVE('',#157,#640);
#640 = DEFINITIONAL_REPRESENTATION('',(#641),#645);
#641 = LINE('',#642,#643);
#642 = CARTESIAN_POINT('',(0.,-0.));
#643 = VECTOR('',#644,1.);
#644 = DIRECTION('',(0.,1.));
#645 = ( GEOMETRIC_REPRESENTATION_CONTEXT(2) 
PARAMETRIC_REPRESENTATION_CONTEXT() REPRESENTATION_CONTEXT('2D SPACE',''
  ) );
#646 = ORIENTED_EDGE('',*,*,#140,.T.);
#647 = ORIENTED_EDGE('',*,*,#626,.T.);
#648 = ORIENTED_EDGE('',*,*,#649,.F.);
#649 = EDGE_CURVE('',#535,#533,#650,.T.);
#650 = SURFACE_CURVE('',#651,(#678,#708),.PCURVE_S1.);
#651 = B_SPLINE_CURVE_WITH_KNOTS('',7,(#652,#653,#654,#655,#656,#657,
    #658,#659,#660,#661,#662,#663,#664,#665,#666,#667,#668,#669,#670,
    #671,#672,#673,#674,#675,#676,#677),.UNSPECIFIED.,.F.,.F.,(8,6,6,6,8
    ),(0.,0.238286799747,0.500000739475,0.761714897175,1.),
  .UNSPECIFIED.);
#652 = CARTESIAN_POINT('',(5.35,-1.33226762955E-15,-14.4));
#653 = CARTESIAN_POINT('',(5.35,-0.34616537776,-14.4));
#654 = CARTESIAN_POINT('',(5.402754861252,-0.682301406259,
    -14.39029124965));
#655 = CARTESIAN_POINT('',(5.502767128385,-0.999237329782,
    -14.37188831552));
#656 = CARTESIAN_POINT('',(5.642986217411,-1.289460964536,
    -14.34725463262));
#657 = CARTESIAN_POINT('',(5.814804887192,-1.547285627076,
    -14.31967204341));
#658 = CARTESIAN_POINT('',(6.008090684688,-1.769363227008,
    -14.29211530148));
#659 = CARTESIAN_POINT('',(6.434477421245,-2.159429394289,
    -14.23865631152));
#660 = CARTESIAN_POINT('',(6.676290709118,-2.326051757219,
    -14.21234753978));
#661 = CARTESIAN_POINT('',(6.930455584008,-2.456905944692,-14.189739069)
  );
#662 = CARTESIAN_POINT('',(7.192720957029,-2.553736857423,
    -14.17208611544));
#663 = CARTESIAN_POINT('',(7.460001309103,-2.617868340367,
    -14.16007883857));
#664 = CARTESIAN_POINT('',(7.729839448514,-2.65,-14.15406302091));
#665 = CARTESIAN_POINT('',(8.270160776492,-2.65,-14.15406302091));
#666 = CARTESIAN_POINT('',(8.540000360855,-2.617868282451,
    -14.16007885002));
#667 = CARTESIAN_POINT('',(8.807281451273,-2.553736198588,
    -14.17208623594));
#668 = CARTESIAN_POINT('',(9.069546031128,-2.456904833865,
    -14.18973928276));
#669 = CARTESIAN_POINT('',(9.323708578857,-2.326051532464,
    -14.21234751604));
#670 = CARTESIAN_POINT('',(9.565520803541,-2.159431018287,
    -14.23865608895));
#671 = CARTESIAN_POINT('',(9.991909315278,-1.769363227038,
    -14.29211530147));
#672 = CARTESIAN_POINT('',(10.185195112855,-1.547285627047,
    -14.31967204342));
#673 = CARTESIAN_POINT('',(10.357013782588,-1.289460964499,
    -14.34725463263));
#674 = CARTESIAN_POINT('',(10.497232871585,-0.999237329814,
    -14.37188831552));
#675 = CARTESIAN_POINT('',(10.597245138761,-0.682301406303,
    -14.39029124965));
#676 = CARTESIAN_POINT('',(10.65,-0.346165377715,-14.4));
#677 = CARTESIAN_POINT('',(10.65,-2.22044604925E-15,-14.4));
#678 = PCURVE('',#157,#679);
#679 = DEFINITIONAL_REPRESENTATION('',(#680),#707);
#680 = B_SPLINE_CURVE_WITH_KNOTS('',7,(#681,#682,#683,#684,#685,#686,
    #687,#688,#689,#690,#691,#692,#693,#694,#695,#696,#697,#698,#699,
    #700,#701,#702,#703,#704,#705,#706),.UNSPECIFIED.,.F.,.F.,(8,6,6,6,8
    ),(0.,0.238286799747,0.500000739475,0.761714897175,1.),
  .UNSPECIFIED.);
#681 = CARTESIAN_POINT('',(3.14159265359,15.6));
#682 = CARTESIAN_POINT('',(3.272221098028,15.6));
#683 = CARTESIAN_POINT('',(3.399064793727,15.609708750345));
#684 = CARTESIAN_POINT('',(3.522304250443,15.628111684472));
#685 = CARTESIAN_POINT('',(3.641795845443,15.652745367371));
#686 = CARTESIAN_POINT('',(3.757138524422,15.680327956583));
#687 = CARTESIAN_POINT('',(3.867520192301,15.707884698517));
#688 = CARTESIAN_POINT('',(4.085592024888,15.761343688472));
#689 = CARTESIAN_POINT('',(4.195360167664,15.787652460217));
#690 = CARTESIAN_POINT('',(4.301884623362,15.810260930998));
#691 = CARTESIAN_POINT('',(4.406023913532,15.827913884558));
#692 = CARTESIAN_POINT('',(4.508616123978,15.839921161425));
#693 = CARTESIAN_POINT('',(4.610441602465,15.845936979086));
#694 = CARTESIAN_POINT('',(4.814336443212,15.845936979086));
#695 = CARTESIAN_POINT('',(4.916162465772,15.839921149979));
#696 = CARTESIAN_POINT('',(5.018754965253,15.827913764057));
#697 = CARTESIAN_POINT('',(5.122894021398,15.810260717238));
#698 = CARTESIAN_POINT('',(5.229417649928,15.787652483957));
#699 = CARTESIAN_POINT('',(5.339185027963,15.761343911043));
#700 = CARTESIAN_POINT('',(5.557257768451,15.707884698521));
#701 = CARTESIAN_POINT('',(5.667639436368,15.680327956578));
#702 = CARTESIAN_POINT('',(5.782982115334,15.652745367368));
#703 = CARTESIAN_POINT('',(5.902473710316,15.628111684479));
#704 = CARTESIAN_POINT('',(6.025713167026,15.609708750342));
#705 = CARTESIAN_POINT('',(6.152556862759,15.6));
#706 = CARTESIAN_POINT('',(6.28318530718,15.6));
#707 = ( GEOMETRIC_REPRESENTATION_CONTEXT(2) 
PARAMETRIC_REPRESENTATION_CONTEXT() REPRESENTATION_CONTEXT('2D SPACE',''
  ) );
#708 = PCURVE('',#369,#709);
#709 = DEFINITIONAL_REPRESENTATION('',(#710),#737);
#710 = B_SPLINE_CURVE_WITH_KNOTS('',7,(#711,#712,#713,#714,#715,#716,
    #717,#718,#719,#720,#721,#722,#723,#724,#725,#726,#727,#728,#729,
    #730,#731,#732,#733,#734,#735,#736),.UNSPECIFIED.,.F.,.F.,(8,6,6,6,8
    ),(0.,0.238286799747,0.500000739475,0.761714897175,1.),
  .UNSPECIFIED.);
#711 = CARTESIAN_POINT('',(6.28318530718,6.35));
#712 = CARTESIAN_POINT('',(6.259146044835,6.35));
#713 = CARTESIAN_POINT('',(6.235803244454,6.402754861252));
#714 = CARTESIAN_POINT('',(6.213771229847,6.502767128385));
#715 = CARTESIAN_POINT('',(6.193554317492,6.642986217411));
#716 = CARTESIAN_POINT('',(6.175551858924,6.814804887192));
#717 = CARTESIAN_POINT('',(6.16001280703,7.008090684688));
#718 = CARTESIAN_POINT('',(6.132671665976,7.434477421245));
#719 = CARTESIAN_POINT('',(6.120959756075,7.676290709118));
#720 = CARTESIAN_POINT('',(6.111738853603,7.930455584008));
#721 = CARTESIAN_POINT('',(6.104903757451,8.192720957029));
#722 = CARTESIAN_POINT('',(6.100372786665,8.460001309103));
#723 = CARTESIAN_POINT('',(6.098102651892,8.729839448514));
#724 = CARTESIAN_POINT('',(6.098102651892,9.270160776492));
#725 = CARTESIAN_POINT('',(6.100372790747,9.540000360855));
#726 = CARTESIAN_POINT('',(6.104903804029,9.807281451273));
#727 = CARTESIAN_POINT('',(6.111738932025,10.069546031129));
#728 = CARTESIAN_POINT('',(6.120959771295,10.323708578857));
#729 = CARTESIAN_POINT('',(6.132671552144,10.565520803541));
#730 = CARTESIAN_POINT('',(6.160012807028,10.991909315278));
#731 = CARTESIAN_POINT('',(6.175551858926,11.185195112855));
#732 = CARTESIAN_POINT('',(6.193554317495,11.357013782588));
#733 = CARTESIAN_POINT('',(6.213771229845,11.497232871585));
#734 = CARTESIAN_POINT('',(6.235803244451,11.597245138761));
#735 = CARTESIAN_POINT('',(6.259146044838,11.65));
#736 = CARTESIAN_POINT('',(6.28318530718,11.65));
#737 = ( GEOMETRIC_REPRESENTATION_CONTEXT(2) 
PARAMETRIC_REPRESENTATION_CONTEXT() REPRESENTATION_CONTEXT('2D SPACE',''
  ) );
#738 = ADVANCED_FACE('',(#739,#765),#190,.F.);
#739 = FACE_BOUND('',#740,.F.);
#740 = EDGE_LOOP('',(#741,#762,#763,#764));
#741 = ORIENTED_EDGE('',*,*,#742,.T.);
#742 = EDGE_CURVE('',#301,#432,#743,.T.);
#743 = SURFACE_CURVE('',#744,(#748,#755),.PCURVE_S1.);
#744 = LINE('',#745,#746);
#745 = CARTESIAN_POINT('',(0.,35.,20.));
#746 = VECTOR('',#747,1.);
#747 = DIRECTION('',(1.,0.,0.));
#748 = PCURVE('',#190,#749);
#749 = DEFINITIONAL_REPRESENTATION('',(#750),#754);
#750 = LINE('',#751,#752);
#751 = CARTESIAN_POINT('',(0.,-0.));
#752 = VECTOR('',#753,1.);
#753 = DIRECTION('',(0.,-1.));
#754 = ( GEOMETRIC_REPRESENTATION_CONTEXT(2) 
PARAMETRIC_REPRESENTATION_CONTEXT() REPRESENTATION_CONTEXT('2D SPACE',''
  ) );
#755 = PCURVE('',#316,#756);
#756 = DEFINITIONAL_REPRESENTATION('',(#757),#761);
#757 = LINE('',#758,#759);
#758 = CARTESIAN_POINT('',(60.530983801686,0.));
#759 = VECTOR('',#760,1.);
#760 = DIRECTION('',(0.,-1.));
#761 = ( GEOMETRIC_REPRESENTATION_CONTEXT(2) 
PARAMETRIC_REPRESENTATION_CONTEXT() REPRESENTATION_CONTEXT('2D SPACE',''
  ) );
#762 = ORIENTED_EDGE('',*,*,#454,.T.);
#763 = ORIENTED_EDGE('',*,*,#172,.F.);
#764 = ORIENTED_EDGE('',*,*,#328,.F.);
#765 = FACE_BOUND('',#766,.F.);
#766 = EDGE_LOOP('',(#767));
#767 = ORIENTED_EDGE('',*,*,#768,.T.);
#768 = EDGE_CURVE('',#769,#769,#771,.T.);
#769 = VERTEX_POINT('',#770);
#770 = CARTESIAN_POINT('',(10.65,-6.490628035481E-16,20.));
#771 = SURFACE_CURVE('',#772,(#777,#788),.PCURVE_S1.);
#772 = CIRCLE('',#773,2.65);
#773 = AXIS2_PLACEMENT_3D('',#774,#775,#776);
#774 = CARTESIAN_POINT('',(8.,0.,20.));
#775 = DIRECTION('',(0.,0.,1.));
#776 = DIRECTION('',(1.,0.,-0.));
#777 = PCURVE('',#190,#778);
#778 = DEFINITIONAL_REPRESENTATION('',(#779),#787);
#779 = ( BOUNDED_CURVE() B_SPLINE_CURVE(2,(#780,#781,#782,#783,#784,#785
,#786),.UNSPECIFIED.,.T.,.F.) B_SPLINE_CURVE_WITH_KNOTS((1,2,2,2,2,1),(
    -2.094395102393,0.,2.094395102393,4.188790204786,6.28318530718,
8.377580409573),.UNSPECIFIED.) CURVE() GEOMETRIC_REPRESENTATION_ITEM() 
RATIONAL_B_SPLINE_CURVE((1.,0.5,1.,0.5,1.,0.5,1.)) REPRESENTATION_ITEM(
  '') );
#780 = CARTESIAN_POINT('',(35.,-10.65));
#781 = CARTESIAN_POINT('',(30.410065359942,-10.65));
#782 = CARTESIAN_POINT('',(32.705032679971,-6.675));
#783 = CARTESIAN_POINT('',(35.,-2.7));
#784 = CARTESIAN_POINT('',(37.294967320029,-6.675));
#785 = CARTESIAN_POINT('',(39.589934640058,-10.65));
#786 = CARTESIAN_POINT('',(35.,-10.65));
#787 = ( GEOMETRIC_REPRESENTATION_CONTEXT(2) 
PARAMETRIC_REPRESENTATION_CONTEXT() REPRESENTATION_CONTEXT('2D SPACE',''
  ) );
#788 = PCURVE('',#789,#794);
#789 = CYLINDRICAL_SURFACE('',#790,2.65);
#790 = AXIS2_PLACEMENT_3D('',#791,#792,#793);
#791 = CARTESIAN_POINT('',(8.,0.,-30.));
#792 = DIRECTION('',(0.,0.,1.));
#793 = DIRECTION('',(1.,0.,-0.));
#794 = DEFINITIONAL_REPRESENTATION('',(#795),#799);
#795 = LINE('',#796,#797);
#796 = CARTESIAN_POINT('',(0.,50.));
#797 = VECTOR('',#798,1.);
#798 = DIRECTION('',(1.,0.));
#799 = ( GEOMETRIC_REPRESENTATION_CONTEXT(2) 
PARAMETRIC_REPRESENTATION_CONTEXT() REPRESENTATION_CONTEXT('2D SPACE',''
  ) );
#800 = ADVANCED_FACE('',(#801),#288,.F.);
#801 = FACE_BOUND('',#802,.F.);
#802 = EDGE_LOOP('',(#803,#804,#805,#826));
#803 = ORIENTED_EDGE('',*,*,#507,.T.);
#804 = ORIENTED_EDGE('',*,*,#408,.T.);
#805 = ORIENTED_EDGE('',*,*,#806,.F.);
#806 = EDGE_CURVE('',#273,#409,#807,.T.);
#807 = SURFACE_CURVE('',#808,(#812,#819),.PCURVE_S1.);
#808 = LINE('',#809,#810);
#809 = CARTESIAN_POINT('',(0.,95.,12.));
#810 = VECTOR('',#811,1.);
#811 = DIRECTION('',(1.,0.,0.));
#812 = PCURVE('',#288,#813);
#813 = DEFINITIONAL_REPRESENTATION('',(#814),#818);
#814 = LINE('',#815,#816);
#815 = CARTESIAN_POINT('',(24.,0.));
#816 = VECTOR('',#817,1.);
#817 = DIRECTION('',(0.,-1.));
#818 = ( GEOMETRIC_REPRESENTATION_CONTEXT(2) 
PARAMETRIC_REPRESENTATION_CONTEXT() REPRESENTATION_CONTEXT('2D SPACE',''
  ) );
#819 = PCURVE('',#316,#820);
#820 = DEFINITIONAL_REPRESENTATION('',(#821),#825);
#821 = LINE('',#822,#823);
#822 = CARTESIAN_POINT('',(0.,0.));
#823 = VECTOR('',#824,1.);
#824 = DIRECTION('',(0.,-1.));
#825 = ( GEOMETRIC_REPRESENTATION_CONTEXT(2) 
PARAMETRIC_REPRESENTATION_CONTEXT() REPRESENTATION_CONTEXT('2D SPACE',''
  ) );
#826 = ORIENTED_EDGE('',*,*,#272,.F.);
#827 = ADVANCED_FACE('',(#828),#316,.F.);
#828 = FACE_BOUND('',#829,.F.);
#829 = EDGE_LOOP('',(#830,#831,#832,#833));
#830 = ORIENTED_EDGE('',*,*,#806,.T.);
#831 = ORIENTED_EDGE('',*,*,#431,.T.);
#832 = ORIENTED_EDGE('',*,*,#742,.F.);
#833 = ORIENTED_EDGE('',*,*,#300,.F.);
#834 = ADVANCED_FACE('',(#835,#885),#369,.F.);
#835 = FACE_BOUND('',#836,.F.);
#836 = EDGE_LOOP('',(#837,#858,#859,#860,#861,#882,#883,#884));
#837 = ORIENTED_EDGE('',*,*,#838,.T.);
#838 = EDGE_CURVE('',#533,#479,#839,.T.);
#839 = SEAM_CURVE('',#840,(#844,#851),.PCURVE_S1.);
#840 = LINE('',#841,#842);
#841 = CARTESIAN_POINT('',(-1.,-3.526982781544E-15,-14.4));
#842 = VECTOR('',#843,1.);
#843 = DIRECTION('',(1.,0.,2.22044604925E-16));
#844 = PCURVE('',#369,#845);
#845 = DEFINITIONAL_REPRESENTATION('',(#846),#850);
#846 = LINE('',#847,#848);
#847 = CARTESIAN_POINT('',(6.28318530718,-0.));
#848 = VECTOR('',#849,1.);
#849 = DIRECTION('',(0.,1.));
#850 = ( GEOMETRIC_REPRESENTATION_CONTEXT(2) 
PARAMETRIC_REPRESENTATION_CONTEXT() REPRESENTATION_CONTEXT('2D SPACE',''
  ) );
#851 = PCURVE('',#369,#852);
#852 = DEFINITIONAL_REPRESENTATION('',(#853),#857);
#853 = LINE('',#854,#855);
#854 = CARTESIAN_POINT('',(0.,-0.));
#855 = VECTOR('',#856,1.);
#856 = DIRECTION('',(0.,1.));
#857 = ( GEOMETRIC_REPRESENTATION_CONTEXT(2) 
PARAMETRIC_REPRESENTATION_CONTEXT() REPRESENTATION_CONTEXT('2D SPACE',''
  ) );
#858 = ORIENTED_EDGE('',*,*,#478,.F.);
#859 = ORIENTED_EDGE('',*,*,#838,.F.);
#860 = ORIENTED_EDGE('',*,*,#532,.T.);
#861 = ORIENTED_EDGE('',*,*,#862,.F.);
#862 = EDGE_CURVE('',#353,#535,#863,.T.);
#863 = SEAM_CURVE('',#864,(#868,#875),.PCURVE_S1.);
#864 = LINE('',#865,#866);
#865 = CARTESIAN_POINT('',(-1.,-3.526982781544E-15,-14.4));
#866 = VECTOR('',#867,1.);
#867 = DIRECTION('',(1.,0.,2.22044604925E-16));
#868 = PCURVE('',#369,#869);
#869 = DEFINITIONAL_REPRESENTATION('',(#870),#874);
#870 = LINE('',#871,#872);
#871 = CARTESIAN_POINT('',(6.28318530718,-0.));
#872 = VECTOR('',#873,1.);
#873 = DIRECTION('',(0.,1.));
#874 = ( GEOMETRIC_REPRESENTATION_CONTEXT(2) 
PARAMETRIC_REPRESENTATION_CONTEXT() REPRESENTATION_CONTEXT('2D SPACE',''
  ) );
#875 = PCURVE('',#369,#876);
#876 = DEFINITIONAL_REPRESENTATION('',(#877),#881);
#877 = LINE('',#878,#879);
#878 = CARTESIAN_POINT('',(0.,-0.));
#879 = VECTOR('',#880,1.);
#880 = DIRECTION('',(0.,1.));
#881 = ( GEOMETRIC_REPRESENTATION_CONTEXT(2) 
PARAMETRIC_REPRESENTATION_CONTEXT() REPRESENTATION_CONTEXT('2D SPACE',''
  ) );
#882 = ORIENTED_EDGE('',*,*,#352,.T.);
#883 = ORIENTED_EDGE('',*,*,#862,.T.);
#884 = ORIENTED_EDGE('',*,*,#649,.T.);
#885 = FACE_BOUND('',#886,.F.);
#886 = EDGE_LOOP('',(#887));
#887 = ORIENTED_EDGE('',*,*,#888,.F.);
#888 = EDGE_CURVE('',#889,#889,#891,.T.);
#889 = VERTEX_POINT('',#890);
#890 = CARTESIAN_POINT('',(10.65,-6.490628035481E-16,14.4));
#891 = SURFACE_CURVE('',#892,(#943,#997),.PCURVE_S1.);
#892 = B_SPLINE_CURVE_WITH_KNOTS('',7,(#893,#894,#895,#896,#897,#898,
    #899,#900,#901,#902,#903,#904,#905,#906,#907,#908,#909,#910,#911,
    #912,#913,#914,#915,#916,#917,#918,#919,#920,#921,#922,#923,#924,
    #925,#926,#927,#928,#929,#930,#931,#932,#933,#934,#935,#936,#937,
    #938,#939,#940,#941,#942),.UNSPECIFIED.,.T.,.F.,(8,6,6,6,6,6,6,6,8),
  (0.,0.119144154637,0.24999490801,0.380853170979,0.499993703198,
    0.61913860349,0.74999722132,0.880855948137,1.),.UNSPECIFIED.);
#893 = CARTESIAN_POINT('',(10.65,4.440892098501E-16,14.4));
#894 = CARTESIAN_POINT('',(10.65,0.346165377776,14.4));
#895 = CARTESIAN_POINT('',(10.597245138743,0.682301406244,
    14.390291249654));
#896 = CARTESIAN_POINT('',(10.497232871626,0.999237329768,
    14.371888315531));
#897 = CARTESIAN_POINT('',(10.357013782588,1.28946096455,14.347254632628
    ));
#898 = CARTESIAN_POINT('',(10.185195112792,1.547285627085,
    14.319672043415));
#899 = CARTESIAN_POINT('',(9.991909315323,1.769363226997,14.292115301485
    ));
#900 = CARTESIAN_POINT('',(9.565534595008,2.159418401607,14.238657818087
    ));
#901 = CARTESIAN_POINT('',(9.32372033713,2.326047596669,14.21234848372)
  );
#902 = CARTESIAN_POINT('',(9.069542439845,2.456910752056,14.189738317005
    ));
#903 = CARTESIAN_POINT('',(8.807262848798,2.55374407478,14.172084738849)
  );
#904 = CARTESIAN_POINT('',(8.539977255719,2.617871856038,14.160078189286
    ));
#905 = CARTESIAN_POINT('',(8.270145272707,2.65,14.154063020914));
#906 = CARTESIAN_POINT('',(7.729839223507,2.65,14.154063020914));
#907 = CARTESIAN_POINT('',(7.459999639145,2.617868282451,14.160078850021
    ));
#908 = CARTESIAN_POINT('',(7.192718548727,2.553736198589,14.172086235943
    ));
#909 = CARTESIAN_POINT('',(6.930453968872,2.456904833865,14.189739282762
    ));
#910 = CARTESIAN_POINT('',(6.676291421143,2.326051532464,14.212347516043
    ));
#911 = CARTESIAN_POINT('',(6.43447919646,2.159431018287,14.238656088957)
  );
#912 = CARTESIAN_POINT('',(6.00809596731,1.769368059644,14.292114639165)
  );
#913 = CARTESIAN_POINT('',(5.814807562638,1.547290444752,14.319671535281
    ));
#914 = CARTESIAN_POINT('',(5.642983916928,1.289460733814,14.347254883674
    ));
#915 = CARTESIAN_POINT('',(5.502761949498,0.999229438825,14.371889268143
    ));
#916 = CARTESIAN_POINT('',(5.402750984076,0.682287289055,14.390291963334
    ));
#917 = CARTESIAN_POINT('',(5.35,0.346152686624,14.4));
#918 = CARTESIAN_POINT('',(5.35,-0.34616537769,14.4));
#919 = CARTESIAN_POINT('',(5.402754861232,-0.682301406328,
    14.390291249659));
#920 = CARTESIAN_POINT('',(5.502767128431,-0.999237329832,
    14.371888315518));
#921 = CARTESIAN_POINT('',(5.642986217413,-1.28946096448,14.347254632634
    ));
#922 = CARTESIAN_POINT('',(5.814804887118,-1.54728562703,14.319672043425
    ));
#923 = CARTESIAN_POINT('',(6.008090684741,-1.769363227055,
    14.292115301477));
#924 = CARTESIAN_POINT('',(6.434477421245,-2.159429394289,
    14.238656311528));
#925 = CARTESIAN_POINT('',(6.676290709118,-2.326051757219,
    14.212347539783));
#926 = CARTESIAN_POINT('',(6.930455584009,-2.456905944692,
    14.189739069002));
#927 = CARTESIAN_POINT('',(7.192720957028,-2.553736857423,
    14.172086115442));
#928 = CARTESIAN_POINT('',(7.460001309104,-2.617868340367,
    14.160078838575));
#929 = CARTESIAN_POINT('',(7.729839448514,-2.65,14.154063020914));
#930 = CARTESIAN_POINT('',(8.270160776493,-2.65,14.154063020914));
#931 = CARTESIAN_POINT('',(8.540000360855,-2.617868282451,
    14.160078850021));
#932 = CARTESIAN_POINT('',(8.807281451272,-2.553736198588,
    14.172086235943));
#933 = CARTESIAN_POINT('',(9.069546031129,-2.456904833865,
    14.189739282762));
#934 = CARTESIAN_POINT('',(9.323708578856,-2.326051532464,
    14.212347516043));
#935 = CARTESIAN_POINT('',(9.56552080354,-2.159431018287,14.238656088957
    ));
#936 = CARTESIAN_POINT('',(9.991909315299,-1.769363227019,
    14.292115301482));
#937 = CARTESIAN_POINT('',(10.185195112825,-1.547285627066,
    14.319672043419));
#938 = CARTESIAN_POINT('',(10.35701378259,-1.28946096452,14.34725463263)
  );
#939 = CARTESIAN_POINT('',(10.497232871603,-0.999237329795,
    14.371888315526));
#940 = CARTESIAN_POINT('',(10.597245138753,-0.682301406275,
    14.390291249656));
#941 = CARTESIAN_POINT('',(10.65,-0.346165377744,14.4));
#942 = CARTESIAN_POINT('',(10.65,4.440892098501E-16,14.4));
#943 = PCURVE('',#369,#944);
#944 = DEFINITIONAL_REPRESENTATION('',(#945),#996);
#945 = B_SPLINE_CURVE_WITH_KNOTS('',7,(#946,#947,#948,#949,#950,#951,
    #952,#953,#954,#955,#956,#957,#958,#959,#960,#961,#962,#963,#964,
    #965,#966,#967,#968,#969,#970,#971,#972,#973,#974,#975,#976,#977,
    #978,#979,#980,#981,#982,#983,#984,#985,#986,#987,#988,#989,#990,
    #991,#992,#993,#994,#995),.UNSPECIFIED.,.T.,.F.,(8,6,6,6,6,6,6,6,8),
  (0.,0.119144154637,0.24999490801,0.380853170979,0.499993703198,
    0.61913860349,0.74999722132,0.880855948137,1.),.UNSPECIFIED.);
#946 = CARTESIAN_POINT('',(3.14159265359,11.65));
#947 = CARTESIAN_POINT('',(3.117553391244,11.65));
#948 = CARTESIAN_POINT('',(3.094210590866,11.597245138743));
#949 = CARTESIAN_POINT('',(3.072178576258,11.497232871627));
#950 = CARTESIAN_POINT('',(3.051961663902,11.357013782588));
#951 = CARTESIAN_POINT('',(3.033959205334,11.185195112792));
#952 = CARTESIAN_POINT('',(3.018420153441,10.991909315323));
#953 = CARTESIAN_POINT('',(2.991079782903,10.565534595008));
#954 = CARTESIAN_POINT('',(2.979367397604,10.32372033713));
#955 = CARTESIAN_POINT('',(2.970145862959,10.069542439845));
#956 = CARTESIAN_POINT('',(2.963310593123,9.807262848799));
#957 = CARTESIAN_POINT('',(2.958779885008,9.539977255719));
#958 = CARTESIAN_POINT('',(2.956509998303,9.270145272707));
#959 = CARTESIAN_POINT('',(2.956509998303,8.729839223507));
#960 = CARTESIAN_POINT('',(2.958780137157,8.459999639145));
#961 = CARTESIAN_POINT('',(2.963311150439,8.192718548727));
#962 = CARTESIAN_POINT('',(2.970146278436,7.930453968872));
#963 = CARTESIAN_POINT('',(2.979367117706,7.676291421143));
#964 = CARTESIAN_POINT('',(2.991078898554,7.43447919646));
#965 = CARTESIAN_POINT('',(3.018419814704,7.00809596731));
#966 = CARTESIAN_POINT('',(3.033958869013,6.814807562638));
#967 = CARTESIAN_POINT('',(3.051961682132,6.642983916928));
#968 = CARTESIAN_POINT('',(3.072179126977,6.502761949498));
#969 = CARTESIAN_POINT('',(3.094211571179,6.402750984076));
#970 = CARTESIAN_POINT('',(3.117554272574,6.35));
#971 = CARTESIAN_POINT('',(3.165631915929,6.35));
#972 = CARTESIAN_POINT('',(3.18897471632,6.402754861232));
#973 = CARTESIAN_POINT('',(3.211006730926,6.502767128431));
#974 = CARTESIAN_POINT('',(3.231223643273,6.642986217413));
#975 = CARTESIAN_POINT('',(3.249226101842,6.814804887118));
#976 = CARTESIAN_POINT('',(3.264765153743,7.008090684741));
#977 = CARTESIAN_POINT('',(3.292106294793,7.434477421245));
#978 = CARTESIAN_POINT('',(3.303818204695,7.676290709118));
#979 = CARTESIAN_POINT('',(3.313039107166,7.930455584008));
#980 = CARTESIAN_POINT('',(3.319874203319,8.192720957028));
#981 = CARTESIAN_POINT('',(3.324405174105,8.460001309104));
#982 = CARTESIAN_POINT('',(3.326675308877,8.729839448514));
#983 = CARTESIAN_POINT('',(3.326675308877,9.270160776493));
#984 = CARTESIAN_POINT('',(3.324405170023,9.540000360855));
#985 = CARTESIAN_POINT('',(3.319874156741,9.807281451272));
#986 = CARTESIAN_POINT('',(3.313039028744,10.069546031129));
#987 = CARTESIAN_POINT('',(3.303818189474,10.323708578856));
#988 = CARTESIAN_POINT('',(3.292106408625,10.56552080354));
#989 = CARTESIAN_POINT('',(3.26476515374,10.991909315299));
#990 = CARTESIAN_POINT('',(3.249226101844,11.185195112825));
#991 = CARTESIAN_POINT('',(3.231223643276,11.35701378259));
#992 = CARTESIAN_POINT('',(3.211006730923,11.497232871603));
#993 = CARTESIAN_POINT('',(3.188974716316,11.597245138753));
#994 = CARTESIAN_POINT('',(3.165631915933,11.65));
#995 = CARTESIAN_POINT('',(3.14159265359,11.65));
#996 = ( GEOMETRIC_REPRESENTATION_CONTEXT(2) 
PARAMETRIC_REPRESENTATION_CONTEXT() REPRESENTATION_CONTEXT('2D SPACE',''
  ) );
#997 = PCURVE('',#789,#998);
#998 = DEFINITIONAL_REPRESENTATION('',(#999),#1050);
#999 = B_SPLINE_CURVE_WITH_KNOTS('',7,(#1000,#1001,#1002,#1003,#1004,
    #1005,#1006,#1007,#1008,#1009,#1010,#1011,#1012,#1013,#1014,#1015,
    #1016,#1017,#1018,#1019,#1020,#1021,#1022,#1023,#1024,#1025,#1026,
    #1027,#1028,#1029,#1030,#1031,#1032,#1033,#1034,#1035,#1036,#1037,
    #1038,#1039,#1040,#1041,#1042,#1043,#1044,#1045,#1046,#1047,#1048,
    #1049),.UNSPECIFIED.,.F.,.F.,(8,6,6,6,6,6,6,6,8),(0.,0.119144154637,
    0.24999490801,0.380853170979,0.499993703198,0.61913860349,
    0.74999722132,0.880855948137,1.),.UNSPECIFIED.);
#1000 = CARTESIAN_POINT('',(0.,44.4));
#1001 = CARTESIAN_POINT('',(0.130628444444,44.4));
#1002 = CARTESIAN_POINT('',(0.257472140132,44.390291249654));
#1003 = CARTESIAN_POINT('',(0.380711596848,44.371888315531));
#1004 = CARTESIAN_POINT('',(0.500203191856,44.347254632628));
#1005 = CARTESIAN_POINT('',(0.61554587084,44.319672043415));
#1006 = CARTESIAN_POINT('',(0.725927538705,44.292115301485));
#1007 = CARTESIAN_POINT('',(0.943993225689,44.238657818087));
#1008 = CARTESIAN_POINT('',(1.053763384222,44.21234848372));
#1009 = CARTESIAN_POINT('',(1.160293332006,44.189738317005));
#1010 = CARTESIAN_POINT('',(1.264437726206,44.172084738849));
#1011 = CARTESIAN_POINT('',(1.367031522941,44.160078189286));
#1012 = CARTESIAN_POINT('',(1.468854714453,44.154063020914));
#1013 = CARTESIAN_POINT('',(1.672743789622,44.154063020914));
#1014 = CARTESIAN_POINT('',(1.774569812182,44.160078850021));
#1015 = CARTESIAN_POINT('',(1.877162311663,44.172086235943));
#1016 = CARTESIAN_POINT('',(1.981301367809,44.189739282762));
#1017 = CARTESIAN_POINT('',(2.087824996338,44.212347516043));
#1018 = CARTESIAN_POINT('',(2.197592374373,44.238656088957));
#1019 = CARTESIAN_POINT('',(2.415662413127,44.292114639165));
#1020 = CARTESIAN_POINT('',(2.52604480981,44.319671535281));
#1021 = CARTESIAN_POINT('',(2.641390020173,44.347254883674));
#1022 = CARTESIAN_POINT('',(2.760884430274,44.371889268143));
#1023 = CARTESIAN_POINT('',(2.884125841953,44.390291963334));
#1024 = CARTESIAN_POINT('',(3.01096899826,44.4));
#1025 = CARTESIAN_POINT('',(3.272221098001,44.4));
#1026 = CARTESIAN_POINT('',(3.399064793754,44.390291249659));
#1027 = CARTESIAN_POINT('',(3.522304250459,44.371888315518));
#1028 = CARTESIAN_POINT('',(3.641795845431,44.347254632634));
#1029 = CARTESIAN_POINT('',(3.75713852439,44.319672043425));
#1030 = CARTESIAN_POINT('',(3.867520192328,44.292115301477));
#1031 = CARTESIAN_POINT('',(4.085592024888,44.238656311528));
#1032 = CARTESIAN_POINT('',(4.195360167663,44.212347539783));
#1033 = CARTESIAN_POINT('',(4.301884623363,44.189739069002));
#1034 = CARTESIAN_POINT('',(4.406023913531,44.172086115442));
#1035 = CARTESIAN_POINT('',(4.508616123978,44.160078838575));
#1036 = CARTESIAN_POINT('',(4.610441602465,44.154063020914));
#1037 = CARTESIAN_POINT('',(4.814336443212,44.154063020914));
#1038 = CARTESIAN_POINT('',(4.916162465772,44.160078850021));
#1039 = CARTESIAN_POINT('',(5.018754965252,44.172086235943));
#1040 = CARTESIAN_POINT('',(5.122894021399,44.189739282762));
#1041 = CARTESIAN_POINT('',(5.229417649928,44.212347516043));
#1042 = CARTESIAN_POINT('',(5.339185027963,44.238656088957));
#1043 = CARTESIAN_POINT('',(5.557257768462,44.292115301482));
#1044 = CARTESIAN_POINT('',(5.667639436354,44.319672043419));
#1045 = CARTESIAN_POINT('',(5.782982115331,44.34725463263));
#1046 = CARTESIAN_POINT('',(5.902473710322,44.371888315526));
#1047 = CARTESIAN_POINT('',(6.025713167036,44.390291249656));
#1048 = CARTESIAN_POINT('',(6.152556862748,44.4));
#1049 = CARTESIAN_POINT('',(6.28318530718,44.4));
#1050 = ( GEOMETRIC_REPRESENTATION_CONTEXT(2) 
PARAMETRIC_REPRESENTATION_CONTEXT() REPRESENTATION_CONTEXT('2D SPACE',''
  ) );
#1051 = ADVANCED_FACE('',(#1052),#789,.F.);
#1052 = FACE_BOUND('',#1053,.F.);
#1053 = EDGE_LOOP('',(#1054,#1055,#1076,#1077));
#1054 = ORIENTED_EDGE('',*,*,#768,.F.);
#1055 = ORIENTED_EDGE('',*,*,#1056,.F.);
#1056 = EDGE_CURVE('',#889,#769,#1057,.T.);
#1057 = SEAM_CURVE('',#1058,(#1062,#1069),.PCURVE_S1.);
#1058 = LINE('',#1059,#1060);
#1059 = CARTESIAN_POINT('',(10.65,-6.490628035481E-16,-30.));
#1060 = VECTOR('',#1061,1.);
#1061 = DIRECTION('',(0.,0.,1.));
#1062 = PCURVE('',#789,#1063);
#1063 = DEFINITIONAL_REPRESENTATION('',(#1064),#1068);
#1064 = LINE('',#1065,#1066);
#1065 = CARTESIAN_POINT('',(6.28318530718,-0.));
#1066 = VECTOR('',#1067,1.);
#1067 = DIRECTION('',(0.,1.));
#1068 = ( GEOMETRIC_REPRESENTATION_CONTEXT(2) 
PARAMETRIC_REPRESENTATION_CONTEXT() REPRESENTATION_CONTEXT('2D SPACE',''
  ) );
#1069 = PCURVE('',#789,#1070);
#1070 = DEFINITIONAL_REPRESENTATION('',(#1071),#1075);
#1071 = LINE('',#1072,#1073);
#1072 = CARTESIAN_POINT('',(0.,-0.));
#1073 = VECTOR('',#1074,1.);
#1074 = DIRECTION('',(0.,1.));
#1075 = ( GEOMETRIC_REPRESENTATION_CONTEXT(2) 
PARAMETRIC_REPRESENTATION_CONTEXT() REPRESENTATION_CONTEXT('2D SPACE',''
  ) );
#1076 = ORIENTED_EDGE('',*,*,#888,.T.);
#1077 = ORIENTED_EDGE('',*,*,#1056,.T.);
#1078 = ( GEOMETRIC_REPRESENTATION_CONTEXT(3) 
GLOBAL_UNCERTAINTY_ASSIGNED_CONTEXT((#1082)) 
GLOBAL_UNIT_ASSIGNED_CONTEXT((#1079,#1080,#1081)) REPRESENTATION_CONTEXT
('Context #1','3D Context with UNIT and UNCERTAINTY') );
#1079 = ( LENGTH_UNIT() NAMED_UNIT(*) SI_UNIT(.MILLI.,.METRE.) );
#1080 = ( NAMED_UNIT(*) PLANE_ANGLE_UNIT() SI_UNIT($,.RADIAN.) );
#1081 = ( NAMED_UNIT(*) SI_UNIT($,.STERADIAN.) SOLID_ANGLE_UNIT() );
#1082 = UNCERTAINTY_MEASURE_WITH_UNIT(LENGTH_MEASURE(1.E-07),#1079,
  'distance_accuracy_value','confusion accuracy');
#1083 = PRODUCT_RELATED_PRODUCT_CATEGORY('part',$,(#7));
ENDSEC;
END-ISO-10303-21;
